# xmcd
#
# Track frame offsets:
#	150
#	14221
#	26794
#	37692
#	50862
#	79412
#	94319
#	107698
#	120357
#	134616
#	146935
#	160800
#	175404
#	187775
#	202324
#
# Disc length: 2887 seconds
# Revision: 0
# Processed by: cddbd v1.5.2PL0 Copyright (c) Steve Scherf et al.
# Submitted via: dBpowerAMP V12.0
#
DISCID=de0b450f
DTITLE=Mohd. Siddique and Ranjit Kaur - Baggi Titri Kamandon Nikli
DYEAR=1900
DGENRE=Punjabi Folk
TTITLE0=Baggi Titri Kamandon Nikli
TTITLE1=Jatti Mili Jatt Nu
TTITLE2=Tu Jatt Di Kadar Na Pai
TTITLE3=Main Gajar Wargi
TTITLE4=Najar Kite Na Lag Jawe
TTITLE5=Ghar Tera Door Mitra
TTITLE6=Boliyan
TTITLE7=Warantan Naal Le Jaoonga
TTITLE8=Gaddi Wichon Lat Lamke
TTITLE9=Pat Diti Gut Main
TTITLE10=Sak Chare Nu Leyana Pau
TTITLE11=Launga Nu Mushkan De
TTITLE12=Aa Gai Roadways Di Loori
TTITLE13=Mongia Bhij Geya Ve
TTITLE14=Aa Mundeya Ve Tu Jara Beh Mundeya
EXTD=
EXTT0=
EXTT1=
EXTT2=
EXTT3=
EXTT4=
EXTT5=
EXTT6=
EXTT7=
EXTT8=
EXTT9=
EXTT10=
EXTT11=
EXTT12=
EXTT13=
EXTT14=
PLAYORDER=
